<svg width="17" height="11" viewBox="0 0 17 11" fill="none" xmlns="http://www.w3.org/2000/svg">
<path d="M1 5.577H14.8467" stroke="white" stroke-width="2" stroke-linecap="round"/>
<path d="M10.5926 0.194539C10.1478 -0.132772 9.52185 -0.0374926 9.19454 0.407351C8.86723 0.852195 8.96251 1.47815 9.40735 1.80546L10.5926 0.194539ZM16 5.41472L16.6072 6.20926C16.8573 6.01813 17.0028 5.72038 16.9999 5.40562C16.9971 5.09085 16.8462 4.79581 16.5926 4.60925L16 5.41472ZM9.3928 9.20545C8.95398 9.5408 8.8701 10.1684 9.20545 10.6072C9.5408 11.046 10.1684 11.1299 10.6072 10.7945L9.3928 9.20545ZM9.40735 1.80546L15.4073 6.22018L16.5926 4.60925L10.5926 0.194539L9.40735 1.80546ZM15.3928 4.62017L9.3928 9.20545L10.6072 10.7945L16.6072 6.20926L15.3928 4.62017Z" fill="white"/>
</svg>
